<svg width="16" height="4" viewBox="0 0 16 4" fill="none" xmlns="http://www.w3.org/2000/svg">
<path fill-rule="evenodd" clip-rule="evenodd" d="M1.99996 0.666748C2.73634 0.666748 3.33329 1.2637 3.33329 2.00008C3.33329 2.73646 2.73634 3.33341 1.99996 3.33341C1.26358 3.33341 0.666626 2.73646 0.666626 2.00008C0.666626 1.2637 1.26358 0.666748 1.99996 0.666748ZM14 0.666748C14.7363 0.666748 15.3333 1.2637 15.3333 2.00008C15.3333 2.73646 14.7363 3.33341 14 3.33341C13.2636 3.33341 12.6666 2.73646 12.6666 2.00008C12.6666 1.2637 13.2636 0.666748 14 0.666748ZM7.99996 0.666748C8.73634 0.666748 9.33329 1.2637 9.33329 2.00008C9.33329 2.73646 8.73634 3.33341 7.99996 3.33341C7.26358 3.33341 6.66663 2.73646 6.66663 2.00008C6.66663 1.2637 7.26358 0.666748 7.99996 0.666748Z" fill="black"/>
</svg>
