<?xml version="1.0" encoding="UTF-8"?>
<svg width="24px" height="24px" viewBox="0 0 24 24" version="1.1" xmlns="http://www.w3.org/2000/svg" xmlns:xlink="http://www.w3.org/1999/xlink">
    <!-- Generator: Sketch 63.1 (92452) - https://sketch.com -->
    <title>ico-close-modal</title>
    <desc>Created with Sketch.</desc>
    <g id="ico-close-modal" stroke="none" stroke-width="1" fill="none" fill-rule="evenodd">
        <g>
            <rect id="Rectangle" x="0" y="0" width="24" height="24"></rect>
            <g id="Icons/UI/16/Close/Default" transform="translate(5.000000, 5.000000)" fill="#333333">
                <path d="M0.747198636,0.12821875 L7.007,6.38901868 L13.2531407,0.156665643 C13.4239951,-0.0138374318 13.7010048,-0.0138374318 13.8718593,0.156665476 C14.0427135,0.327168719 14.0427135,0.603608823 13.8718591,0.774111899 L7.625,7.00701868 L13.8721985,13.2550177 C14.0428652,13.4257079 14.0425612,13.7021478 13.8715201,13.8724643 C13.7004776,14.0427794 13.423468,14.042476 13.2528013,13.8717859 L7.006,7.62401868 L0.746859252,13.8721249 C0.576004875,14.042628 0.2989952,14.042628 0.128140657,13.8721251 C-0.0427135522,13.7016218 -0.0427135522,13.4251817 0.128140824,13.2546787 L6.388,7.00601868 L0.127801439,0.744986887 C-0.0428652942,0.57429676 -0.0425612316,0.297856822 0.128479867,0.12754029 C0.299522395,-0.0427748143 0.576531903,-0.0424713769 0.747198636,0.12821875 Z" id="Combined-Shape"></path>
            </g>
        </g>
    </g>
</svg>